<?xml version="1.0" encoding="iso-8859-1"?>
<!-- Generator: Adobe Illustrator 19.0.0, SVG Export Plug-In . SVG Version: 6.00 Build 0)  -->
<svg version="1.1" id="Capa_1" xmlns="http://www.w3.org/2000/svg" xmlns:xlink="http://www.w3.org/1999/xlink" x="0px" y="0px"
	 viewBox="0 0 472.098 472.098" style="enable-background:new 0 0 472.098 472.098;" xml:space="preserve">
<path style="fill:#4398D1;" d="M264,56.098l-264,264l152,152l264-264v-152H264z M360,136.098c-13.255,0-24-10.745-24-24
	s10.745-24,24-24s24,10.745,24,24S373.255,136.098,360,136.098z"/>
<path style="fill:#3E8CC7;" d="M105.336,425.434L152,472.098l264-264v-93.336L105.336,425.434z"/>
<path style="fill:#FFFFFF;" d="M301.656,207.93l-11.312-11.312l-11.312,11.312l-11.32-11.312l11.312-11.32l-11.312-11.312
	l-11.312,11.32l-11.312-11.32c-3.174-3.001-8.138-3.001-11.312,0l-67.88,67.888c-3.123,3.124-3.123,8.188,0,11.312l11.312,11.312
	l-11.312,11.32l11.312,11.312l11.312-11.32l11.312,11.32l-11.312,11.312l11.312,11.312l12.12-12.12
	c15.14,8.988,34.699,4.002,43.688-11.138c3.283-5.53,4.817-11.924,4.4-18.342c9.17,0.564,18.142-2.826,24.648-9.312
	c10.353-10.272,12.357-26.285,4.856-38.792L301.656,207.93z M239.432,281.474c-6.248,6.246-16.376,6.246-22.624,0l-33.944-33.944
	l22.624-22.632l33.944,33.936c6.252,6.245,6.257,16.376,0.013,22.627C239.44,281.466,239.436,281.47,239.432,281.474
	L239.432,281.474z M273.376,247.53c-6.332,6.048-16.3,6.048-22.632,0L216.8,213.594l22.624-22.64l33.952,33.944
	c6.246,6.248,6.246,16.376,0,22.624V247.53z"/>
<g>
	<path style="fill:#87CED9;" d="M360,120.098c-4.418-0.001-7.999-3.583-7.998-8.002c0-2.121,0.843-4.154,2.342-5.654l104-104
		c3.07-3.178,8.134-3.266,11.312-0.196s3.266,8.134,0.196,11.312c-0.064,0.067-0.13,0.132-0.196,0.196l-104,104
		C364.156,119.255,362.122,120.098,360,120.098z"/>
	<path style="fill:#87CED9;" d="M88,320.098c2.122,0,4.156-0.844,5.656-2.344l16.064-16.056c3.202,1.566,6.716,2.386,10.28,2.4
		c13.255,0,24-10.745,24-24s-10.745-24-24-24s-24,10.745-24,24c0.014,3.564,0.834,7.078,2.4,10.28l-13.712,13.72H64
		c-2.122,0-4.156,0.844-5.656,2.344l-36,36l11.312,11.312l33.656-33.656H88z M120,272.098c4.418,0,8,3.582,8,8s-3.582,8-8,8
		s-8-3.582-8-8S115.582,272.098,120,272.098z"/>
	<path style="fill:#87CED9;" d="M128,368.098c13.255,0,24-10.745,24-24s-10.745-24-24-24s-24,10.745-24,24
		c0.014,3.564,0.834,7.078,2.4,10.28l-36.064,36.064l11.312,11.312l36.072-36.056C120.922,367.264,124.436,368.084,128,368.098z
		 M128,336.098c4.418,0,8,3.582,8,8s-3.582,8-8,8s-8-3.582-8-8S123.582,336.098,128,336.098z"/>
	<path style="fill:#87CED9;" d="M46.345,366.445l28.002-28.002l11.314,11.314l-28.002,28.002L46.345,366.445z"/>
	<path style="fill:#87CED9;" d="M168,392.098c2.122,0,4.156-0.844,5.656-2.344l16-16l-0.208-0.208
		c3.272,1.656,6.885,2.53,10.552,2.552c13.255,0,24-10.745,24-24s-10.745-24-24-24s-24,10.745-24,24
		c0.022,3.667,0.896,7.28,2.552,10.552l-0.208-0.208l-13.656,13.656H136c-2.122,0-4.156,0.844-5.656,2.344l-36,36l11.312,11.312
		l33.656-33.656H168z M200,344.098c4.418,0,8,3.582,8,8s-3.582,8-8,8s-8-3.582-8-8S195.582,344.098,200,344.098z"/>
	<path style="fill:#87CED9;" d="M118.345,438.445l28.002-28.002l11.314,11.314l-28.002,28.002L118.345,438.445z"/>
</g>
<g>
</g>
<g>
</g>
<g>
</g>
<g>
</g>
<g>
</g>
<g>
</g>
<g>
</g>
<g>
</g>
<g>
</g>
<g>
</g>
<g>
</g>
<g>
</g>
<g>
</g>
<g>
</g>
<g>
</g>
</svg>
