<?xml version="1.0" encoding="iso-8859-1"?>
<!-- Generator: Adobe Illustrator 19.0.0, SVG Export Plug-In . SVG Version: 6.00 Build 0)  -->
<svg version="1.1" id="Capa_1" xmlns="http://www.w3.org/2000/svg" xmlns:xlink="http://www.w3.org/1999/xlink" x="0px" y="0px"
	 viewBox="0 0 472 472" style="enable-background:new 0 0 472 472;" xml:space="preserve">
<path id="SVGCleanerId_0" style="fill:#4398D1;" d="M348,120H60c-22.091,0-40,17.909-40,40s17.909,40,40,40h360v-80H348z"/>
<g>
	<path id="SVGCleanerId_0_1_" style="fill:#4398D1;" d="M348,120H60c-22.091,0-40,17.909-40,40s17.909,40,40,40h360v-80H348z"/>
</g>
<path style="fill:#3E8CC7;" d="M92,168H60c-12.533,0.025-24.322,5.954-31.816,16c7.494,10.046,19.283,15.975,31.816,16h360v-32H92z"
	/>
<path style="fill:#FDB62F;" d="M244,10.328C174.594-2.887,107.617,42.665,94.402,112.07s32.337,136.383,101.742,149.598
	c69.406,13.215,136.383-32.337,149.598-101.742C347.244,152.039,348,144.029,348,136C347.862,74.624,304.267,21.945,244,10.328z"/>
<circle style="fill:#FFA12E;" cx="220" cy="136" r="96"/>
<g>
	<path style="fill:#F46B27;" d="M228,192v16h16v-17.136c17.064-4.357,27.364-21.722,23.007-38.786
		c-1.591-6.231-5.029-11.836-9.863-16.078c13.237-11.616,14.55-31.764,2.934-45.001c-4.242-4.834-9.847-8.272-16.078-9.863V64h-16
		v16h-16V64h-16v16h-16c-4.418,0-8,3.582-8,8v96c0,4.418,3.582,8,8,8h16v16h16v-16H228z M188,96h48c8.837,0,16,7.163,16,16
		s-7.163,16-16,16h-48V96z M188,144h48c8.837,0,16,7.163,16,16s-7.163,16-16,16h-48V144z"/>
	<path style="fill:#F46B27;" d="M220,32c-57.41,0.066-103.934,46.59-104,104h16c0.057-48.577,39.423-87.943,88-88V32z"/>
	<path style="fill:#F46B27;" d="M308,136c-0.057,48.577-39.423,87.943-88,88v16c57.41-0.066,103.934-46.59,104-104H308z"/>
</g>
<path style="fill:#75462E;" d="M420,200H60c-22.091,0-40-17.909-40-40v272c0,22.091,17.909,40,40,40h360V200z"/>
<path style="fill:#4398D1;" d="M420,296v-64c17.673,0,32,14.327,32,32S437.673,296,420,296z"/>
<path style="fill:#875339;" d="M420,296h-69.984c-26.448-0.412-48.513,20.111-50.016,46.52c-0.817,26.497,20,48.64,46.497,49.457
	c0.501,0.015,1.002,0.023,1.503,0.023h72c17.673,0,32-14.327,32-32v-96C452,281.673,437.673,296,420,296z"/>
<g>
	<path style="fill:#3E8CC7;" d="M140,276.688l-21.656,21.656c-1.5,1.5-2.344,3.534-2.344,5.656v33.472
		c-12.497,4.418-19.046,18.131-14.627,30.627c4.418,12.497,18.131,19.046,30.627,14.627c12.497-4.418,19.046-18.131,14.627-30.627
		c-2.416-6.835-7.793-12.211-14.627-14.627v-30.16l21.656-21.656c1.5-1.5,2.344-3.534,2.344-5.656v-80h-16V276.688z M124,368
		c-4.418,0-8-3.582-8-8s3.582-8,8-8s8,3.582,8,8S128.418,368,124,368z"/>
	<path style="fill:#3E8CC7;" d="M84,281.472V276l28.8-21.6c2.014-1.511,3.2-3.882,3.2-6.4v-48h-16v44l-28.8,21.6
		c-2.014,1.511-3.2,3.882-3.2,6.4v9.472c-12.497,4.418-19.046,18.131-14.627,30.627c4.418,12.497,18.131,19.046,30.627,14.627
		c12.497-4.418,19.046-18.131,14.627-30.627C96.211,289.265,90.835,283.888,84,281.472z M76,312c-4.418,0-8-3.582-8-8s3.582-8,8-8
		s8,3.582,8,8S80.418,312,76,312z"/>
	<path style="fill:#3E8CC7;" d="M268,393.472V328c0-2.122-0.844-4.156-2.344-5.656L244,300.688V200h-16v104
		c0,2.122,0.844,4.156,2.344,5.656L252,331.312v62.16c-12.497,4.418-19.046,18.131-14.627,30.627
		c4.418,12.497,18.131,19.046,30.627,14.627c12.497-4.418,19.046-18.131,14.627-30.627C280.211,401.265,274.835,395.888,268,393.472
		L268,393.472z M260,424c-4.418,0-8-3.582-8-8s3.582-8,8-8s8,3.582,8,8S264.418,424,260,424z"/>
	<path style="fill:#3E8CC7;" d="M188,316.688l-13.656,13.656c-1.5,1.5-2.344,3.534-2.344,5.656v64h16v-60.688l13.656-13.656
		c1.5-1.5,2.344-3.534,2.344-5.656V200h-16V316.688z"/>
	<path style="fill:#3E8CC7;" d="M284,200h16v56h-16V200z"/>
	<path style="fill:#3E8CC7;" d="M360.44,249.344L340,235.72V200h-16v40c0,2.674,1.335,5.172,3.56,6.656L348,260.28V272h16v-16
		C364,253.326,362.665,250.828,360.44,249.344z"/>
	<path style="fill:#3E8CC7;" d="M284,272h16v16h-16V272z"/>
</g>
<g>
	<path style="fill:#FDB62F;" d="M60,80c0-22.091,17.909-40,40-40C77.909,40,60,22.091,60,0"/>
	<path style="fill:#FDB62F;" d="M60,0c0,22.091-17.909,40-40,40c22.091,0,40,17.909,40,40"/>
</g>
<circle style="fill:#DBDBDB;" cx="348" cy="344" r="16"/>
<g>
</g>
<g>
</g>
<g>
</g>
<g>
</g>
<g>
</g>
<g>
</g>
<g>
</g>
<g>
</g>
<g>
</g>
<g>
</g>
<g>
</g>
<g>
</g>
<g>
</g>
<g>
</g>
<g>
</g>
</svg>
