<?xml version="1.0" encoding="iso-8859-1"?>
<!-- Generator: Adobe Illustrator 19.0.0, SVG Export Plug-In . SVG Version: 6.00 Build 0)  -->
<svg version="1.1" id="Capa_1" xmlns="http://www.w3.org/2000/svg" xmlns:xlink="http://www.w3.org/1999/xlink" x="0px" y="0px"
	 viewBox="0 0 464 464" style="enable-background:new 0 0 464 464;" xml:space="preserve">
<path style="fill:#87CED9;" d="M464,24c0-13.255-10.745-24-24-24H168c-13.255,0-24,10.745-24,24v184h320V24z"/>
<path style="fill:#78C3CF;" d="M144,186.544V208h320V24c-0.433-3.851-1.408-7.622-2.896-11.2L144,186.544z"/>
<path style="fill:#FDB62F;" d="M136,272c-30.879-0.048-55.951,24.945-56,55.824c-0.011,6.967,1.28,13.875,3.808,20.368L0,432v32h32
	v-24h24v-24h24v-24h24l8-8l3.808-3.808c28.825,11.21,61.28-3.07,72.49-31.895c11.21-28.825-3.07-61.28-31.895-72.49
	C149.899,273.278,142.979,271.987,136,272z M144,336c-8.837,0-16-7.163-16-16s7.163-16,16-16s16,7.163,16,16S152.837,336,144,336z"
	/>
<g>
	<path style="fill:#4398D1;" d="M144,208v16c0,13.255,10.745,24,24,24h272c13.255,0,24-10.745,24-24v-16H144z"/>
	<path style="fill:#4398D1;" d="M349.712,296L336,248h-64l-13.712,48H232v16h144v-16H349.712z"/>
</g>
<path style="fill:#3E8CC7;" d="M340.568,264L336,248h-64l-4.568,16H340.568z"/>
<g>
	<path style="fill:#DBDBDB;" d="M104,104h16v16h-16V104z"/>
	<path style="fill:#DBDBDB;" d="M72,104h16v16H72V104z"/>
	<path style="fill:#DBDBDB;" d="M40,104h16v16H40V104z"/>
	<path style="fill:#DBDBDB;" d="M40,136h16v16H40V136z"/>
	<path style="fill:#DBDBDB;" d="M40,168h16v16H40V168z"/>
	<path style="fill:#DBDBDB;" d="M40,200h16v16H40V200z"/>
	<path style="fill:#DBDBDB;" d="M40,232h16v16H40V232z"/>
	<path style="fill:#DBDBDB;" d="M40,264h16v16H40V264z"/>
	<path style="fill:#DBDBDB;" d="M40,296h16v16H40V296z"/>
	<path style="fill:#DBDBDB;" d="M216,392h16v16h-16V392z"/>
	<path style="fill:#DBDBDB;" d="M248,392h16v16h-16V392z"/>
	<path style="fill:#DBDBDB;" d="M280,392h16v16h-16V392z"/>
	<path style="fill:#DBDBDB;" d="M312,392h16v16h-16V392z"/>
	<path style="fill:#DBDBDB;" d="M312,360h16v16h-16V360z"/>
	<path style="fill:#DBDBDB;" d="M312,328h16v16h-16V328z"/>
	<path style="fill:#DBDBDB;" d="M184,392h16v16h-16V392z"/>
</g>
<circle style="fill:#FDB62F;" cx="304" cy="104" r="72"/>
<path style="fill:#F46B27;" d="M336,88c0-13.255-10.745-24-24-24v-8h-16v8h-16c-4.418,0-8,3.582-8,8v64c0,4.418,3.582,8,8,8h16v8h16
	v-8c13.255-0.009,23.993-10.762,23.983-24.017c-0.004-5.898-2.18-11.588-6.111-15.983C333.822,99.607,336.005,93.907,336,88z
	 M312,128h-24v-16h24c4.418,0,8,3.582,8,8S316.418,128,312,128z M312,96h-24V80h24c4.418,0,8,3.582,8,8S316.418,96,312,96z"/>
<g>
</g>
<g>
</g>
<g>
</g>
<g>
</g>
<g>
</g>
<g>
</g>
<g>
</g>
<g>
</g>
<g>
</g>
<g>
</g>
<g>
</g>
<g>
</g>
<g>
</g>
<g>
</g>
<g>
</g>
</svg>
